<svg id="Layer_1" data-name="Layer 1" xmlns="http://www.w3.org/2000/svg" viewBox="0 0 90.64 70.85"><defs><style>.cls-1{fill:#fff;}</style></defs><title>bars</title><path class="cls-1" d="M18.27,31.72a4.5,4.5,0,1,0-4.5-4.5,4.5,4.5,0,0,0,4.5,4.5"/><path class="cls-1" d="M18.27,44.95a4.5,4.5,0,1,0-4.5-4.5,4.5,4.5,0,0,0,4.5,4.5"/><path class="cls-1" d="M18.27,58.18a4.5,4.5,0,1,0-4.5-4.5,4.5,4.5,0,0,0,4.5,4.5"/><path class="cls-1" d="M35.35,29.81a3.42,3.42,0,0,0-3.49,3.49V54.68a3.42,3.42,0,0,0,3.49,3.49h1.93a3.42,3.42,0,0,0,3.49-3.49V33.3a3.42,3.42,0,0,0-3.49-3.49H35.35Z"/><path class="cls-1" d="M53.4,19.48A3.42,3.42,0,0,0,49.9,23V54.68a3.42,3.42,0,0,0,3.49,3.49h1.93a3.42,3.42,0,0,0,3.49-3.49V23a3.42,3.42,0,0,0-3.49-3.49H53.4Z"/><path class="cls-1" d="M71.44,12.4a3.42,3.42,0,0,0-3.49,3.49V54.68a3.42,3.42,0,0,0,3.49,3.49h1.93a3.42,3.42,0,0,0,3.49-3.49V15.9a3.42,3.42,0,0,0-3.49-3.49H71.44Z"/><path class="cls-1" d="M83.5,70.85H7.14A6.94,6.94,0,0,1,0,63.71V7.14A6.94,6.94,0,0,1,7.14,0H83.5a6.94,6.94,0,0,1,7.14,7.14V63.71A6.94,6.94,0,0,1,83.5,70.85ZM7.15,4.37A2.56,2.56,0,0,0,4.37,7.14V63.71a2.55,2.55,0,0,0,2.77,2.77H83.5a2.55,2.55,0,0,0,2.77-2.77V7.14A2.55,2.55,0,0,0,83.5,4.37H7.15Z"/></svg>