<?xml version="1.0" encoding="iso-8859-1"?>
<!-- Generator: Adobe Illustrator 19.2.0, SVG Export Plug-In . SVG Version: 6.00 Build 0)  -->
<!DOCTYPE svg PUBLIC "-//W3C//DTD SVG 1.1//EN" "http://www.w3.org/Graphics/SVG/1.1/DTD/svg11.dtd">
<svg version="1.1" xmlns="http://www.w3.org/2000/svg" xmlns:xlink="http://www.w3.org/1999/xlink" x="0px" y="0px"
	 viewBox="0 0 86.8433456 88.9751587" style="enable-background:new 0 0 86.8433456 88.9751587;" xml:space="preserve">
<g id="Layer_1">
	<g>
		<g>
			<path style="fill:#FFFFFF;" d="M14.1443529,46.9828186H3.1326337c-1.1044922,0-1.9999999-0.8955078-1.9999999-2
				s0.8955077-2,1.9999999-2h11.0117188c1.1044922,0,1.999999,0.8955078,1.999999,2S15.2488451,46.9828186,14.1443529,46.9828186z"
				/>
		</g>
		<g>
			<path style="fill:#FFFFFF;" d="M83.9949417,46.9828186H72.9822464c-1.1044922,0-2-0.8955078-2-2s0.8955078-2,2-2h11.0126953
				c1.1044922,0,2,0.8955078,2,2S85.0994339,46.9828186,83.9949417,46.9828186z"/>
		</g>
		<g>
			<g>
				<path style="fill:#FFFFFF;" d="M53.7869301,70.426178H33.2420082c-1.1044922,0-2-0.8955078-2-2v-9.8691406
					c-3.25-2.765625-9.15625-8.8466797-9.15625-16.5136719c0-12.0244141,9.6347656-21.8071289,21.4775391-21.8071289
					s21.4775429,9.7827148,21.4775429,21.8071289c0,7.7226562-5.9472694,13.8066406-9.2187538,16.5664062l-0.0351562,9.8232422
					C55.7830238,69.535553,54.8884926,70.426178,53.7869301,70.426178z M35.2420082,66.426178H51.793766l0.0322266-8.7724609
					c0.0019531-0.6083984,0.2802734-1.1816406,0.7558594-1.5595703c2.5439453-2.0195312,8.4589844-7.4316406,8.4589844-14.0507812
					c0-9.8188477-7.8408203-17.8071289-17.4775391-17.8071289s-17.4775391,7.9882812-17.4775391,17.8071289
					c0,6.5693359,5.8789062,11.9863281,8.40625,14.0097656c0.4736328,0.3798828,0.75,0.9541016,0.75,1.5615234V66.426178z"/>
			</g>
		</g>
		<g>
			<path style="fill:#FFFFFF;" d="M53.184391,77.144928H33.9431801c-1.1044922,0-2-0.8955078-2-2s0.8955078-2,2-2H53.184391
				c1.1044922,0,2,0.8955078,2,2S54.2888832,77.144928,53.184391,77.144928z"/>
		</g>
		<g>
			<path style="fill:#FFFFFF;" d="M53.184391,82.9046936H33.9431801c-1.1044922,0-2-0.8955078-2-2s0.8955078-2,2-2H53.184391
				c1.1044922,0,2,0.8955078,2,2S54.2888832,82.9046936,53.184391,82.9046936z"/>
		</g>
		<g>
			<path style="fill:#FFFFFF;" d="M53.184391,88.6644592H33.9431801c-1.1044922,0-2-0.8955078-2-2s0.8955078-2,2-2H53.184391
				c1.1044922,0,2,0.8955078,2,2S54.2888832,88.6644592,53.184391,88.6644592z"/>
		</g>
		<g>
			<path style="fill:#FFFFFF;" d="M43.5632973,16.5409241c-1.1044922,0-2-0.8955078-2-2V3.1200256c0-1.1044922,0.8955078-2,2-2
				s2,0.8955078,2,2v11.4208984C45.5632973,15.6454163,44.6677895,16.5409241,43.5632973,16.5409241z"/>
		</g>
		<g>
			<path style="fill:#FFFFFF;" d="M23.347477,26.1737366c-0.4882812,0-0.9765625-0.1767578-1.3613281-0.534668l-9.5185537-8.8447266
				c-0.8095703-0.7519531-0.8554688-2.0175781-0.1035156-2.8266602c0.7529297-0.809082,2.0195312-0.8544922,2.8261719-0.1040039
				l9.5185537,8.8447266c0.8095703,0.7519531,0.8554688,2.0175781,0.1035156,2.8266602
				C24.418766,25.9588928,23.8836098,26.1737366,23.347477,26.1737366z"/>
		</g>
		<g>
			<path style="fill:#FFFFFF;" d="M63.7800941,26.1737366c-0.5361328,0-1.0712891-0.2143555-1.4648438-0.6386719
				c-0.7519531-0.809082-0.7060547-2.074707,0.1035156-2.8266602l9.5195351-8.8447266
				c0.8066406-0.7514648,2.0742188-0.7070312,2.8261719,0.1040039c0.7519531,0.809082,0.7060547,2.074707-0.1035156,2.8266602
				l-9.5195312,8.8447266C64.7566605,25.9964905,64.2674026,26.1737366,63.7800941,26.1737366z"/>
		</g>
		<g>
			<path style="fill:#FFFFFF;" d="M73.7381058,74.082428c-0.4882812,0-0.9765625-0.1767578-1.3613281-0.5351562
				l-9.5185585-8.8457031c-0.8095703-0.7519531-0.8554688-2.0175781-0.1035156-2.8261719
				c0.7529297-0.8095703,2.0195351-0.8554688,2.8261757-0.1035156l9.5185547,8.8457031
				c0.8095703,0.7519531,0.8554688,2.0175781,0.1035156,2.8261719C74.8093948,73.8675842,74.2742386,74.082428,73.7381058,74.082428
				z"/>
		</g>
		<g>
			<path style="fill:#FFFFFF;" d="M13.3894701,74.082428c-0.5361328,0-1.0712891-0.2148438-1.4648438-0.6386719
				c-0.7519531-0.8085938-0.7060547-2.0742188,0.1035156-2.8261719l9.5195303-8.8457031
				c0.8076172-0.7529297,2.0742188-0.7060547,2.8261719,0.1035156c0.7519531,0.8085938,0.7060547,2.0742188-0.1035156,2.8261719
				l-9.5195303,8.8457031C14.3660326,73.9056702,13.8767748,74.082428,13.3894701,74.082428z"/>
		</g>
	</g>
</g>
<g id="Layer_1_copy">
</g>
</svg>
