<?xml version="1.0" encoding="iso-8859-1"?>
<!-- Generator: Adobe Illustrator 19.2.0, SVG Export Plug-In . SVG Version: 6.00 Build 0)  -->
<!DOCTYPE svg PUBLIC "-//W3C//DTD SVG 1.1//EN" "http://www.w3.org/Graphics/SVG/1.1/DTD/svg11.dtd">
<svg version="1.1" xmlns="http://www.w3.org/2000/svg" xmlns:xlink="http://www.w3.org/1999/xlink" x="0px" y="0px"
	 viewBox="0 0 78.2038879 87.9653549" style="enable-background:new 0 0 78.2038879 87.9653549;" xml:space="preserve">
<g id="Layer_1">
	<g>
		<g>
			<path style="fill:#032977;" d="M58.9756432,87.743454H33.1416588c-3.17383,0-5.7558613-2.5771484-5.7558613-5.7451172v-4.7275391
				c0-1.1572266-0.9443359-2.0986328-2.1044922-2.0986328h-4.2392578c-5.3369131,0-9.67871-4.3339844-9.67871-9.6621094V54.8606415
				l-7.835938-0.0029297c-1.6503905,0-2.9853516-1.3359375-2.9853516-2.9775391
				c0-0.6054688,0.1787109-1.1826172,0.5175781-1.6767578l8.5585938-14.7885742
				c0.5195312-0.9667969,0.5546875-1.6494141,0.5556641-1.6777344c0-0.0649414,0.0058594-0.1611328,0.0136719-0.2573242
				C10.4473219,15.4172802,25.4150944,0.6946241,43.5537682,0.6946241c18.4052734,0,33.3789024,14.9384766,33.3789024,33.300293
				c0,8.0463867-5.9404297,18.6518555-8.8173828,22.5268555l-0.0634766,0.0800781
				c-1.2412109,1.4902344-3.3242188,4.4609375-3.3242188,7.6210938v17.7753906
				C64.7275925,85.1663055,62.1475182,87.743454,58.9756432,87.743454z M4.6904855,51.2112274h6.9248052
				c1.9228516,0.0869141,3.1875,1.3291016,3.3847656,3.2431641l0.0097656,0.1865234v10.8691406
				c0,3.3173828,2.7060537,6.015625,6.0322256,6.015625h4.2392578c3.1708984,0,5.7509766,2.5771484,5.7509766,5.7451172v4.7275391
				c0,1.1572266,0.9462891,2.0986328,2.1093769,2.0986328h25.8339844c1.1611328,0,2.1054688-0.9414062,2.1054688-2.0986328
				V64.2229462c0-4.2773438,2.5742188-8.03125,4.1357384-9.9140625c2.5498047-3.453125,8.0693359-13.2749023,8.0693359-20.3139648
				c0-16.3510761-13.3378868-29.6538105-29.7324181-29.6538105c-16.1562519,0-29.4892578,13.1103516-29.7197266,29.2255878
				l-0.0117188,0.2045898c-0.0009766,0.2426758-0.0429688,1.6054688-1.0205078,3.4208984L4.6904855,51.2112274z
				 M11.3408766,54.6692352L11.3408766,54.6692352L11.3408766,54.6692352z"/>
		</g>
		<g>
			<path style="fill:#032977;" d="M28.0762272,36.5256805h-6.6894531c-1.0068359,0-1.8232422-0.8164062-1.8232422-1.8232422
				s0.8164062-1.8232422,1.8232422-1.8232422h6.6894531c1.0068359,0,1.8232422,0.8164062,1.8232422,1.8232422
				S29.0830631,36.5256805,28.0762272,36.5256805z"/>
		</g>
		<g>
			<path style="fill:#032977;" d="M67.4590378,36.5256805h-6.6894493c-1.0068359,0-1.8232422-0.8164062-1.8232422-1.8232422
				s0.8164062-1.8232422,1.8232422-1.8232422h6.6894493c1.0068359,0,1.8232422,0.8164062,1.8232422,1.8232422
				S68.4658737,36.5256805,67.4590378,36.5256805z"/>
		</g>
		<g>
			<path style="fill:#032977;" d="M49.5957603,49.2161102H39.2002525c-1.0068359,0-1.8232422-0.8164062-1.8232422-1.8232422
				v-4.5429688c-1.984375-1.7270508-4.6328125-4.7583008-4.6328125-8.6313477
				c0-6.4589863,5.2382812-11.7133808,11.6777344-11.7133808s11.6787109,5.2543945,11.6787109,11.7133808
				c0,3.9711914-2.8681641,7.0922852-4.6650391,8.6582031l-0.0166016,4.5229492
				C51.4150963,48.4036102,50.5996666,49.2161102,49.5957603,49.2161102z M41.0234947,45.5696259h6.7558594l0.0126953-3.5595703
				c0.0019531-0.5576172,0.2597656-1.0839844,0.6982422-1.4282227c1.1914062-0.934082,3.9638672-3.4248047,3.9638672-6.3632812
				c0-4.4482441-3.6035156-8.0668964-8.0322266-8.0668964s-8.03125,3.6186523-8.03125,8.0668964
				c0,2.9155273,2.7558594,5.4086914,3.9404297,6.3452148c0.4375,0.3457031,0.6923828,0.8725586,0.6923828,1.4301758V45.5696259z"/>
		</g>
		<g>
			<path style="fill:#032977;" d="M49.3076744,54.7620087h-9.7695312c-1.0068359,0-1.8232422-0.8164062-1.8232422-1.8232422
				s0.8164062-1.8232422,1.8232422-1.8232422h9.7695312c1.0068359,0,1.8232422,0.8164062,1.8232422,1.8232422
				S50.3145103,54.7620087,49.3076744,54.7620087z"/>
		</g>
		<g>
			<path style="fill:#032977;" d="M49.3076744,60.337204h-9.7695312c-1.0068359,0-1.8232422-0.8164062-1.8232422-1.8232422
				s0.8164062-1.8232422,1.8232422-1.8232422h9.7695312c1.0068359,0,1.8232422,0.8164062,1.8232422,1.8232422
				S50.3145103,60.337204,49.3076744,60.337204z"/>
		</g>
		<g>
			<path style="fill:#032977;" d="M44.4229088,19.9206982c-1.0068359,0-1.8232422-0.8164062-1.8232422-1.8232422v-6.6899414
				c0-1.0068359,0.8164062-1.8232422,1.8232422-1.8232422s1.8232422,0.8164062,1.8232422,1.8232422v6.6899414
				C46.246151,19.1042919,45.4297447,19.9206982,44.4229088,19.9206982z"/>
		</g>
		<g>
			<path style="fill:#032977;" d="M32.3184166,24.8904247c-0.4667988,0-0.9335957-0.1782227-1.2890644-0.5341797
				l-4.6308594-4.6313477c-0.7119141-0.7119141-0.7119141-1.8662109,0-2.5786133
				c0.7109375-0.7119141,1.8671875-0.7114258,2.578125,0.0004883l4.6308613,4.6313477
				c0.7119141,0.7119141,0.7119141,1.8662109,0,2.5786133C33.2520103,24.7126904,32.7852135,24.8904247,32.3184166,24.8904247z"/>
		</g>
		<g>
			<path style="fill:#032977;" d="M56.5264244,24.890913c-0.4667969,0-0.9335938-0.1782227-1.2890625-0.5341797
				c-0.7119141-0.7119141-0.7119141-1.8662109,0-2.5786133l4.6318359-4.6313477
				c0.7109375-0.7119141,1.8671875-0.7114258,2.578125,0.0004883c0.7119141,0.7119141,0.7119141,1.8662109,0,2.5786133
				l-4.6318359,4.6313477C57.4600182,24.7131786,56.9932213,24.890913,56.5264244,24.890913z"/>
		</g>
		<g>
			<path style="fill:#032977;" d="M61.4160728,51.3206024c-0.4667969,0-0.9335938-0.1777344-1.2890625-0.5341797
				l-4.6308594-4.6308594c-0.7119141-0.7128906-0.7119141-1.8666992,0-2.5791016
				c0.7109375-0.7119141,1.8671875-0.7114258,2.578125,0.0004883l4.6308594,4.6313477
				c0.7119141,0.7119141,0.7119141,1.8662109,0,2.578125C62.3496666,51.142868,61.8828697,51.3206024,61.4160728,51.3206024z"/>
		</g>
		<g>
			<path style="fill:#032977;" d="M27.4287663,51.3206024c-0.4667969,0-0.9326172-0.1777344-1.2890625-0.5341797
				c-0.7119141-0.7119141-0.7119141-1.8662109,0-2.578125l4.6308594-4.6318359
				c0.7109375-0.7119141,1.8652363-0.7124023,2.5781269-0.0004883c0.7119141,0.7119141,0.7119141,1.8666992,0,2.5786133
				l-4.6308613,4.6318359C28.36236,51.142868,27.8955631,51.3206024,27.4287663,51.3206024z"/>
		</g>
	</g>
</g>
<g id="Layer_1_copy">
</g>
</svg>
