<?xml version="1.0" encoding="iso-8859-1"?>
<!-- Generator: Adobe Illustrator 19.2.0, SVG Export Plug-In . SVG Version: 6.00 Build 0)  -->
<!DOCTYPE svg PUBLIC "-//W3C//DTD SVG 1.1//EN" "http://www.w3.org/Graphics/SVG/1.1/DTD/svg11.dtd">
<svg version="1.1" xmlns="http://www.w3.org/2000/svg" xmlns:xlink="http://www.w3.org/1999/xlink" x="0px" y="0px"
	 viewBox="0 0 70.5742416 81.6821136" style="enable-background:new 0 0 70.5742416 81.6821136;" xml:space="preserve">
<g id="Layer_1">
	<g>
		<path style="fill:#032977;" d="M35.2415962,47.8687553c-9.1865234,0-16.6601562,7.4736328-16.6601562,16.6591835
			S26.0550728,81.186142,35.2415962,81.186142c9.1855469,0,16.6582031-7.4726562,16.6582031-16.6582031
			S44.4271431,47.8687553,35.2415962,47.8687553z M46.2083931,64.5279388c0,6.046875-4.9199219,10.9667969-10.9667969,10.9667969
			c-6.0478516,0-10.9677734-4.9199219-10.9677734-10.9667969s4.9199219-10.9668007,10.9677734-10.9668007
			C41.2884712,53.5611382,46.2083931,58.48106,46.2083931,64.5279388z"/>
		<path style="fill:#032977;" d="M28.7572212,44.3209038c0.3164062,0,0.6308594-0.0546875,0.9326172-0.1630859
			c0.6904297-0.2490234,1.2431641-0.7519531,1.5566406-1.4160156c0.3125-0.6650391,0.3476562-1.4111328,0.0986328-2.1025391
			c-2.4599609-6.8339844-6.4433594-12.9833984-11.8408203-18.2783203C9.3226509,12.375104,5.6996036,2.8624084,5.6644473,2.7686584
			c-0.5244141-1.419922-2.1074219-2.1508789-3.5273438-1.6318361c-1.423828,0.5224609-2.1572266,2.1054688-1.6347655,3.5288086
			c0.1582031,0.4311523,4,10.6855469,15.1503906,21.6220703c4.7998047,4.7084961,8.3388672,10.1640625,10.5175781,16.2148438
			C26.5619087,43.590435,27.6019478,44.3209038,28.7572212,44.3209038z"/>
		<path style="fill:#032977;" d="M68.383194,1.1412169c-1.4248047-0.5263672-3.0039062,0.2055664-3.5322266,1.6259767
			c-0.0351562,0.0942383-3.6210899,9.5703125-13.8388634,19.59375c-3.7724609,3.699707-6.8837891,7.8725586-9.2539062,12.409668
			c-0.8896484-1.7001953-1.9121094-3.3896484-3.0449219-5.0297852c1.0849609-1.309082,2.1171875-2.4404297,3.1494141-3.453125
			C53.012104,15.352643,56.8548775,5.0967832,57.0130806,4.6656308c0.2529297-0.6894529,0.2226562-1.4365232-0.0859375-2.1030271
			S56.0687447,1.389752,55.378315,1.1368223c-1.4228516-0.5219727-3.0078125,0.2124023-3.5292969,1.6362306
			c-0.0341797,0.0932617-3.5283203,9.4760742-13.8369141,19.5883789c-0.875,0.8574219-1.7539062,1.7988281-2.7509766,2.9472656
			c-0.9648438-1.1098633-1.8691406-2.0761719-2.7568359-2.9477539C22.3226509,12.375104,18.699604,2.8624084,18.6644478,2.7686584
			c-0.5244141-1.419922-2.109375-2.1508789-3.5273438-1.6318361c-1.4238281,0.5224609-2.1572266,2.1054688-1.6347656,3.5288086
			c0.1582031,0.4311523,4,10.6855469,15.1503906,21.6220703c4.7998047,4.7084961,8.3388672,10.1640625,10.5166016,16.2119141
			c0.0136719,0.0380859,0.0302734,0.0742188,0.0634766,0.140625c0.0234375,0.0566406,0.0478516,0.1123047,0.0742188,0.1640625
			c0.0537109,0.1083984,0.1142578,0.2080078,0.2001953,0.3359375c0.0166016,0.0273438,0.0341797,0.0537109,0.0527344,0.078125
			c0.1025391,0.1376953,0.2080078,0.2568359,0.3212891,0.3613281c0.015625,0.0146484,0.0332031,0.0283203,0.0683594,0.0566406
			c0.1015625,0.0869141,0.2080078,0.1689453,0.3212891,0.2412109c0.0458984,0.0302734,0.0917969,0.0556641,0.1357422,0.0791016
			c0.1074219,0.0615234,0.21875,0.1152344,0.3486328,0.1689453c0.0224609,0.0117188,0.0458984,0.0234375,0.1210938,0.046875
			c0.0986328,0.0332031,0.2011719,0.0576172,0.3447266,0.0898438c0.0302734,0.0078125,0.0615234,0.015625,0.09375,0.0214844
			c0.1464844,0.0234375,0.2939453,0.0371094,0.4423828,0.0371094c0.1503906,0,0.296875-0.0136719,0.4453125-0.0380859
			c0.0322266-0.0048828,0.0634766-0.0126953,0.1289062-0.0302734c0.1044922-0.0224609,0.2080078-0.046875,0.3603516-0.0957031
			c0.0253906-0.0097656,0.0488281-0.0214844,0.078125-0.0371094c0.1162109-0.0458984,0.2294922-0.0996094,0.3486328-0.1679688
			c0.0439453-0.0244141,0.0859375-0.0478516,0.125-0.0742188c0.1142578-0.0732422,0.2236328-0.1542969,0.3300781-0.2480469
			l0.0585938-0.0478516c0.1152344-0.1064453,0.2207031-0.2255859,0.3232422-0.3623047
			c0.0185547-0.0253906,0.0361328-0.0527344,0.0712891-0.1074219c0.0664062-0.0976562,0.1289062-0.1992188,0.1835938-0.3085938
			c0.0253906-0.0527344,0.0488281-0.1054688,0.0908203-0.2011719c0.015625-0.0322266,0.0302734-0.0644531,0.0439453-0.0996094
			c2.1796875-6.0517578,5.71875-11.5073242,10.5175781-16.2148438C66.0121002,15.352643,69.8548737,5.0967832,70.0130768,4.6656308
			C70.5335846,3.2461975,69.8021393,1.6646544,68.383194,1.1412169z M40.112812,43.4466362l0.0001221,0.000061L40.11269,43.4468803
			L40.112812,43.4466362z M41.3548775,44.0364189L41.3548775,44.0364189v0.0003052V44.0364189z M43.4591255,43.4008598
			c0-0.000061,0.0001221,0,0.0001221-0.000061l0.0001221,0.0001831L43.4591255,43.4008598z"/>
	</g>
</g>
<g id="Layer_1_copy">
</g>
</svg>
