<svg id="Layer_1" data-name="Layer 1" xmlns="http://www.w3.org/2000/svg" viewBox="0 0 99.71 82.15"><defs><style>.cls-1{fill:#303030;}</style></defs><title>speech-black</title><g id="Layer_1-2" data-name="Layer 1"><path class="cls-1" d="M22.33,35.47a4.75,4.75,0,1,0,4.75,4.75A4.75,4.75,0,0,0,22.33,35.47Zm13.63,0a4.75,4.75,0,1,0,4.75,4.75A4.75,4.75,0,0,0,36,35.47Zm64.29,2.19C100.25,17.33,77.89.79,50.4.79S.54,17.33.54,37.66,22.91,74.54,50.4,74.54A64.85,64.85,0,0,0,70.3,71.48L91.87,82.7A2.15,2.15,0,0,0,95,80.54L92.28,57.71C97.5,51.74,100.25,44.83,100.25,37.66ZM87.9,57.25,90.25,77,71.48,67.26a2.14,2.14,0,0,0-1.68-.13,60.4,60.4,0,0,1-19.4,3.12c-25.12,0-45.56-14.62-45.56-32.58S25.27,5.08,50.4,5.08,96,19.7,96,37.66c0,6.37-2.59,12.55-7.5,17.88A2.15,2.15,0,0,0,87.9,57.25ZM49.59,35.47a4.75,4.75,0,1,0,4.75,4.75A4.75,4.75,0,0,0,49.59,35.47Z" transform="translate(-0.54 -0.79)"/></g></svg>