<?xml version="1.0" encoding="iso-8859-1"?>
<!-- Generator: Adobe Illustrator 19.2.0, SVG Export Plug-In . SVG Version: 6.00 Build 0)  -->
<!DOCTYPE svg PUBLIC "-//W3C//DTD SVG 1.1//EN" "http://www.w3.org/Graphics/SVG/1.1/DTD/svg11.dtd">
<svg version="1.1" xmlns="http://www.w3.org/2000/svg" xmlns:xlink="http://www.w3.org/1999/xlink" x="0px" y="0px"
	 viewBox="0 0 93.9119873 82.0187149" style="enable-background:new 0 0 93.9119873 82.0187149;" xml:space="preserve">
<g id="Layer_1">
	<g>
		<g>
			<path style="fill:#FFFFFF;" d="M83.5111923,81.2984695c-12.4482422,0.0009766-18.1787109-8.1455078-19.8740234-11.1601562
				c-10.4482422-0.6201172-16.5966797-3.8027344-20.4414062-10.5224609
				c-0.3193359-0.5595703-0.3505859-1.2392578-0.0820312-1.8251953c0.2675781-0.5859375,0.8017578-1.0068359,1.4345703-1.1308594
				C70.4018173,51.6051102,70.0707626,28.1222,70.0443954,27.1251297c-0.015625-0.5795898,0.2207031-1.137207,0.6484375-1.5288086
				c0.4267578-0.3916016,1.0029297-0.5805664,1.5791016-0.5117188c13.0097656,1.4970703,21.0917969,9.909668,21.0917969,21.9550781
				c0,8.2041016-5.0429688,15.7167969-13.2568359,19.8916016c0.6835938,4.0166016,4.3613281,9.2617188,5.8505859,11.0888672
				c0.4794922,0.5898438,0.5839844,1.4003906,0.2695312,2.0917969c-0.3144531,0.6923828-0.9951172,1.1455078-1.7539062,1.1708984
				C84.1479111,81.2935867,83.8275986,81.2984695,83.5111923,81.2984695z M66.7553329,67.4654617
				c0.1611328,0.3642578,3.7363281,8.1884766,13.6123047,9.6123047c-1.9287109-2.9755859-4.2851562-7.3613281-4.3681641-11.140625
				c-0.0029297-0.1298828,0.0058594-0.2568359,0.0273438-0.3808594c0.0556641-0.7041016,0.484375-1.3574219,1.1748047-1.6679688
				c7.5019531-3.3710938,12.1621094-9.8271484,12.1621094-16.8486328c0-9.3374023-5.7255859-15.8183594-15.4384766-17.6616211
				c-0.6005859,6.5581055-4.2138672,24.8793945-25.6943359,30.5405273
				c3.3359375,4.0869141,8.4199219,5.9472656,16.7441406,6.2822266
				C65.7670517,66.2320633,66.4652939,66.7291336,66.7553329,67.4654617z"/>
		</g>
		<g>
			<path style="fill:#FFFFFF;" d="M12.1693954,68.6666336c-0.0742188,0-0.1259766-0.0009766-0.1533203-0.0009766
				c-0.7539062-0.0126953-1.4355469-0.4482422-1.7646484-1.1269531c-0.3291016-0.6777344-0.2490234-1.4833984,0.2070312-2.0839844
				c2.5791016-3.3925781,6.5214844-9.4267578,7.5234375-12.9511719C7.3080673,47.7154617,0.4994735,38.3243484,0.4994735,28.1978836
				c0-15.199707,14.9345703-27.565918,33.2910156-27.565918s33.2910156,12.3662109,33.2910156,27.565918
				c0,14.1977539-13.1083984,26.078125-30.0400391,27.4365234C29.3793564,68.281868,13.9887314,68.6666336,12.1693954,68.6666336z
				 M33.7904892,4.6319656c-16.1513672,0-29.2910156,10.5717773-29.2910156,23.565918
				c0,8.9399414,6.4580078,17.2675781,16.4521484,21.2167969c0.7890625,0.3125,1.2958984,1.0888672,1.2626953,1.9375
				c-0.1386719,3.5830078-3.5126953,9.2207031-6.0058594,12.9208984
				c4.9931641-0.8242188,13.2851562-3.3789062,17.7460938-11.2822266c0.0263672-0.046875,0.0546875-0.0927734,0.0849609-0.1376953
				c0.3046875-0.6416016,0.9423828-1.1005859,1.7021484-1.140625c15.3310547-0.8125,27.3398438-11.1416016,27.3398438-23.5146484
				C63.0815048,15.203743,49.9418564,4.6319656,33.7904892,4.6319656z"/>
		</g>
	</g>
</g>
<g id="Layer_1_copy">
</g>
</svg>
