<?xml version="1.0" encoding="iso-8859-1"?>
<!-- Generator: Adobe Illustrator 19.2.0, SVG Export Plug-In . SVG Version: 6.00 Build 0)  -->
<!DOCTYPE svg PUBLIC "-//W3C//DTD SVG 1.1//EN" "http://www.w3.org/Graphics/SVG/1.1/DTD/svg11.dtd">
<svg version="1.1" xmlns="http://www.w3.org/2000/svg" xmlns:xlink="http://www.w3.org/1999/xlink" x="0px" y="0px"
	 viewBox="0 0 76.9696808 76.8574829" style="enable-background:new 0 0 76.9696808 76.8574829;" xml:space="preserve">
<g id="Layer_1">
	<g>
		<path style="fill:#032977;" d="M66.2058716,41.7250252c-1.3944016,0-2.9223022-0.1261978-4.581501-0.3792l-0.2224007-0.0335999
			c-1.0209999-0.1428986-1.7327995-1.0865974-1.589901-2.1075974c0.1430016-1.0211029,1.078701-1.7329025,2.1077003-1.589901
			l0.267601,0.0393982c6.0445023,0.9233017,8.483902-0.2581978,9.3992004-1.0435982
			c0.7737961-0.6651993,1.1340942-1.5768013,1.1340942-2.8690987c0-2.5628014-0.2822952-3.7843018-1.0421982-4.5063019
			c-2.1280975-2.0252991-9.7506981-2.0202007-24.9710999-1.2581005c-0.6388969,0.0285015-1.2244987-0.2530003-1.5956993-0.757
			c-0.3719978-0.5031986-0.4659996-1.1595993-0.2515984-1.7474003c3.9076004-10.7132988-0.2961006-19.0578995-4.8330994-20.9636002
			c-1.2849998-0.539-3.0295029-0.6905999-4.2488022,1.4768c0.3369026,17.7131996-17.1450996,24.5590992-17.322998,24.6268997
			c-0.9634018,0.3668995-2.0428009-0.1189003-2.4082012-1.0823002c-0.3660994-0.9633999,0.1174011-2.0397987,1.079401-2.4074001l0,0
			c0.6322994-0.2427998,15.4829979-6.1216984,14.9067993-21.4953003c-0.0116997-0.3018999,0.0503006-0.6016002,0.1809006-0.8744001
			c1.8290977-3.8323998,5.4645996-5.2807999,9.2584-3.6865997c5.3106995,2.2294998,11.0028992,10.9328995,7.7319984,23.0508995
			c16.2902985-0.7591991,22.0495987-0.4405003,25.047699,2.4118004c2.0325012,1.9333,2.2024994,4.7360001,2.2024994,7.2120018
			c0,2.3614998-0.8423996,4.3326988-2.4350967,5.7008972C72.250267,40.9622269,69.6320724,41.7250252,66.2058716,41.7250252z"/>
		<path style="fill:#032977;" d="M65.0440674,53.4207268c-1.4891968,0.0008011-3.142498-0.152401-4.9584999-0.4586983
			c-1.0173988-0.171402-1.702198-1.1340027-1.5307999-2.1507034c0.1707001-1.0173988,1.1326027-1.7072983,2.1506996-1.5307999
			c5.0190048,0.8445015,8.461998,0.3734016,9.6916046-1.3294983c1.5511932-2.1500015-0.134201-6.4702988-0.8467026-7.8137016
			c-0.4828033-0.910099-0.138504-2.0397987,0.7702026-2.5240974c0.9100952-0.4864006,2.0382996-0.1422005,2.5233002,0.7650986
			c0.3945999,0.7373009,3.7631989,7.330101,0.5877991,11.7475014
			C71.8556671,52.3188248,69.0427704,53.4207268,65.0440674,53.4207268z"/>
		<path style="fill:#032977;" d="M62.5724678,65.0224228c-1.5330009,0-3.2394981-0.1574936-5.1181984-0.4747925
			c-1.0166016-0.171402-1.7014008-1.1340027-1.5301018-2.1514053c0.171402-1.0158997,1.1275024-1.7057991,2.1515007-1.530098
			c5.151001,0.8663979,8.6647034,0.4069977,9.8943024-1.2995987c1.4534988-2.0158005-0.0896988-5.9875031-0.7453003-7.2200012
			c-0.4835052-0.9094009-0.1399994-2.0399017,0.7678986-2.5247993c0.9073029-0.4864998,2.0362015-0.1466026,2.5233994,0.7612991
			c0.3727036,0.6929016,3.5494995,6.8947983,0.4916,11.1561012C69.4387665,63.9248276,66.6105652,65.0224228,62.5724678,65.0224228z
			"/>
		<path style="fill:#032977;" d="M53.9047699,76.5657272c-10.3530998,0.0007019-24.7487011-2.9032974-36.3320999-5.5382996
			c-1.0049992-0.228302-1.6350994-1.2287979-1.4060993-2.2345047c0.2283001-1.0049973,1.2273998-1.6401978,2.2346001-1.4060974
			c34.1711998,7.7721024,42.825798,5.5746994,44.9421997,3.5743027c1.7305984-1.6351013,0.4054985-5.6711044-0.1946983-6.9561005
			c-0.436203-0.9327011-0.0351028-2.0442009,0.8969994-2.4818001c0.9305954-0.4383011,2.0412979-0.0401001,2.481102,0.8897972
			c0.1421967,0.3019028,3.4407959,7.425705-0.6184998,11.2618027
			C63.7050705,75.7569275,59.3664703,76.5657272,53.9047699,76.5657272z"/>
		<path style="fill:#032977;" d="M11.1621685,75.767128H9.1522684c-6.3011999,0-8.5881996-5.135704-8.5881996-8.5882034V32.7393265
			c0-6.3010998,5.1356997-8.5881996,8.5881996-8.5881996h2.0099001c6.3010998,0,8.5881996,5.1357994,8.5881996,8.5881996v34.4395981
			C19.7503681,73.4800262,14.6146688,75.767128,11.1621685,75.767128z M9.1602688,27.8851261
			c-0.8197002,0.0109997-4.8622003,0.2998009-4.8622003,4.8542004v34.4395981
			c0.0102,0.8008041,0.2931004,4.8542023,4.8541999,4.8542023h2.0099001
			c0.8008003-0.0102005,4.8542004-0.2931976,4.8542004-4.8542023V32.7393265
			c-0.0102005-0.8006992-0.2932005-4.8542004-4.8542004-4.8542004H9.1602688z"/>
	</g>
</g>
<g id="Layer_1_copy">
</g>
</svg>
