<?xml version="1.0" encoding="utf-8"?>
<!-- Generator: Adobe Illustrator 19.2.0, SVG Export Plug-In . SVG Version: 6.00 Build 0)  -->
<svg version="1.1" id="Layer_1" xmlns="http://www.w3.org/2000/svg" xmlns:xlink="http://www.w3.org/1999/xlink" x="0px" y="0px"
	 viewBox="0 0 432 90.4" style="enable-background:new 0 0 432 90.4;" xml:space="preserve">
<path d="M93.1,90.4h0.6l30.8-76.7c3-7.4,5.8-11,8.5-12.6V0.3h-18.5V1c3.9,2.1,4.8,7.9,2.1,14.5L97.8,62.8L72.1,0h-0.6l-27,62.7
	L25,13.4C22.8,7.5,23.4,3.1,27,1V0.3H0V1c2.9,1.5,5,4.6,7.6,11l31.8,78.4h0.6l26.8-63.5L93.1,90.4z M292.7,46.4V21.5h26
	c11.9,0,16.4,1.9,20.7,7.9l0.8-0.3l-1.5-13.8h-65.1l-0.1,0.6c3.9,2.4,5,5.9,5,10.9v49.3c0,5.1-1.1,8.5-5,10.9l0.1,0.8H342l2.5-14.8
	l-0.6-0.3c-4.4,5.9-9.6,8.9-21.4,8.9h-29.8V52.3h19.9c8.5,0,12.8,1.4,15,5h0.9V41.6l-0.9-0.1c-2.3,3.6-6.5,5-15,5H292.7z
	 M379.9,87.1l0.1,0.8h25v-0.8c-4.1-2.4-5.4-6.1-5.4-12.1V58l22-31.4c4-5.8,7.4-9.3,10.3-10.5v-0.6h-19.5V16c3.5,2,4,6.9,0.3,12.3
	l-16.1,23.3l-17.8-26.2c-2.8-4-2.3-7.6,1-9.4v-0.6h-27.4V16c3.3,1.4,5.3,3.2,8.8,8.3L385.4,59v16C385.4,81,384.1,84.8,379.9,87.1
	 M259.1,87.9l3.5-15.3l-0.8-0.3c-4.3,6.6-10.8,9.4-20.4,9.4h-28.3V28.2c0-6.1,1.5-9.6,5.8-12.1v-0.6H194l-0.1,0.6
	c3.9,2.4,5,5.9,5,10.9v49.3c0,5.1-1.1,8.5-5,10.9l0.1,0.8H259.1z M148.8,75.6c0,5.6-1.3,9.3-5.3,11.5v0.8h24.8v-0.8
	c-4-2.2-5.3-5.9-5.3-11.5V27.5c0-5.5,1.2-9.1,5.3-11.5v-0.6h-24.8V16c4,2.4,5.3,6,5.3,11.5V75.6z"/>
</svg>
